PathFileType	4	(X/Y/Z)	C:\Users\86182\Documents\cortex\Trimmed_M3_L1.trc
DataRate	CameraRate	NumFrames	NumMarkers	Units	OrigDataRate	OrigDataStartFrame	OrigNumFrames
100.00	100.00	       126	2	mm	100.00	541	       901
Frame#	Time	gripper			box			
		X1	Y1	Z1	X2	Y2	Z2	

541	5.400	273.37933	149.79010	292.98492	275.03531	147.86398	157.09639	
542	5.410	273.34607	149.81609	292.99969	275.02307	147.88306	157.14928	
543	5.420	273.39560	149.79556	292.97830	275.00354	147.86331	157.11887	
544	5.430	273.39517	149.79910	292.96030	275.01321	147.89731	157.12016	
545	5.440	273.40527	149.80298	292.97675	275.00311	147.88403	157.14476	
546	5.450	273.40698	149.80147	292.98270	274.98541	147.91582	157.16823	
547	5.460	273.37180	149.80176	292.98151	275.03217	147.89699	157.10184	
548	5.470	273.35318	149.82362	292.98373	275.01038	147.88290	157.10921	
549	5.480	273.38113	149.82214	292.97369	274.96805	147.88895	157.12396	
550	5.490	273.33469	149.80383	292.96317	274.99588	147.86734	157.11852	
551	5.500	273.30701	149.79251	292.94904	274.98358	147.89995	157.16393	
552	5.510	273.31183	149.80983	292.97888	275.00491	147.91341	157.11043	
553	5.520	273.31415	149.80220	292.99606	274.96082	147.88423	157.12578	
554	5.530	273.31210	149.81075	293.00113	274.99423	147.88467	157.15114	
555	5.540	273.30356	149.80988	293.00262	274.99457	147.86494	157.11842	
556	5.550	273.29135	149.79315	292.97739	274.99301	147.86623	157.10994	
557	5.560	273.33456	149.79573	292.99887	274.95697	147.91219	157.14848	
558	5.570	273.36810	149.81430	292.99072	275.00870	147.86943	157.13321	
559	5.580	273.36090	149.80528	292.94968	274.95865	147.92589	157.17371	
560	5.590	273.36804	149.80968	293.00171	275.07138	147.91661	157.11674	
561	5.600	273.39417	149.79608	292.97232	275.06711	147.88350	157.11055	
562	5.610	273.40741	149.81725	292.96240	275.09689	147.92564	157.12271	
563	5.620	273.41663	149.80730	292.97290	275.05441	147.87094	157.09586	
564	5.630	273.42191	149.81270	292.95981	275.03183	147.90216	157.13252	
565	5.640	273.36478	149.78291	292.96442	274.99661	147.87634	157.11455	
566	5.650	273.40149	149.80299	292.96820	275.02921	147.88890	157.13301	
567	5.660	273.33511	149.80403	293.01038	274.96579	147.90353	157.14551	
568	5.670	273.32785	149.80142	292.99979	275.00555	147.87128	157.13223	
569	5.680	273.36255	149.79823	292.99713	274.97961	147.91875	157.17209	
570	5.690	273.28320	149.78900	292.99576	274.96249	147.89558	157.12784	
571	5.700	273.29834	149.79599	293.00842	274.99484	147.89223	157.14206	
572	5.710	273.25562	149.79633	292.97897	275.00552	147.89609	157.11629	
573	5.720	273.29160	149.79129	292.93994	275.00333	147.86792	157.13492	
574	5.730	273.31757	149.79778	292.98822	274.97354	147.88232	157.12009	
575	5.740	273.27213	149.81366	292.95486	274.98053	147.93211	157.11813	
576	5.750	273.36661	149.82869	292.93494	275.00644	147.90948	157.12279	
577	5.760	273.37253	149.80898	292.94867	274.96692	147.89626	157.13477	
578	5.770	273.38416	149.82314	292.91745	275.01913	147.94046	157.11311	
579	5.780	273.38724	149.80605	292.97281	274.99512	147.92033	157.14339	
580	5.790	273.39130	149.80513	292.97443	275.01169	147.90744	157.13496	
581	5.800	273.33569	149.79001	292.94904	275.00381	147.86925	157.13777	
582	5.810	273.39792	149.80482	292.99606	275.00214	147.87508	157.14539	
583	5.820	273.40002	149.80357	292.98459	275.00540	147.89110	157.14433	
584	5.830	273.37985	149.79106	292.98447	275.02643	147.85840	157.10959	
585	5.840	273.37680	149.79884	292.99631	275.02908	147.85519	157.10768	
586	5.850	273.33182	149.79169	292.98904	275.01886	147.86317	157.12477	
587	5.860	273.33636	149.79294	292.98300	275.00781	147.86839	157.13596	
588	5.870	273.39432	149.80742	292.99747	274.96524	147.90224	157.14258	
589	5.880	273.34869	149.78757	292.97101	275.04095	147.91206	157.13007	
590	5.890	273.38681	149.81033	292.97672	274.98224	147.89171	157.13029	
591	5.900	273.34006	149.81615	293.00705	274.99554	147.86765	157.12425	
592	5.910	273.34335	149.83138	292.97781	274.99179	147.91785	157.12633	
593	5.920	273.33289	149.80768	292.99854	274.95929	147.91524	157.13092	
594	5.930	273.31009	149.80309	292.95313	275.01300	147.89032	157.10793	
595	5.940	273.30261	149.79364	292.95523	275.02655	147.90065	157.09743	
596	5.950	273.30350	149.82333	292.98282	274.97839	147.88443	157.12994	
597	5.960	273.31317	149.78728	292.95135	275.00009	147.89639	157.13560	
598	5.970	273.32153	149.79970	292.92606	274.98569	147.89931	157.13879	
599	5.980	273.37338	149.79842	292.98849	274.98993	147.89375	157.16072	
600	5.990	273.37445	149.80461	292.99808	275.03738	147.86935	157.10814	
601	6.000	273.31369	149.80016	292.99356	274.97818	147.90414	157.16280	
602	6.010	273.36404	149.79968	293.00626	274.97171	147.90811	157.16096	
603	6.020	273.34351	149.80540	292.99353	275.01559	147.90569	157.14867	
604	6.030	273.34875	149.80255	292.98923	275.03445	147.87910	157.09451	
605	6.040	273.39438	149.81766	292.95996	275.03979	147.92833	157.12386	
606	6.050	273.36124	149.79359	292.96133	275.06165	147.90126	157.08144	
607	6.060	273.34424	149.80788	292.96243	275.02933	147.91335	157.09067	
608	6.070	273.32819	149.80540	292.97711	275.01208	147.89781	157.12846	
609	6.080	273.35834	149.81059	292.93204	275.04477	147.88464	157.12332	
610	6.090	273.32306	149.81100	292.95041	275.00873	147.89491	157.10132	
611	6.100	273.33017	149.80083	292.97333	274.99725	147.90671	157.10609	
612	6.110	273.31976	149.79803	292.96436	274.99908	147.87341	157.12163	
613	6.120	273.32983	149.80077	292.96738	274.95313	147.92278	157.16122	
614	6.130	273.32608	149.79826	292.98972	274.98788	147.88852	157.14928	
615	6.140	273.29056	149.79140	292.97995	274.99622	147.85902	157.11067	
616	6.150	273.33270	149.80508	292.98135	274.97000	147.92368	157.18491	
617	6.160	273.33752	149.79648	292.97574	274.96744	147.89758	157.13771	
618	6.170	273.34470	149.80508	292.97281	275.00385	147.89742	157.10782	
619	6.180	273.36920	149.79990	292.98969	274.98624	147.89438	157.15695	
620	6.190	273.35596	149.79549	292.93826	274.99371	147.89490	157.13332	
621	6.200	273.33270	149.81250	292.96109	274.99115	147.88480	157.13603	
622	6.210	273.36270	149.82330	292.95395	274.99271	147.88875	157.14471	
623	6.220	273.33939	149.79893	292.92798	275.03271	147.88913	157.10307	
624	6.230	273.36972	149.79666	292.93323	275.02518	147.90459	157.13110	
625	6.240	273.37982	149.81163	292.98859	274.97491	147.91148	157.16225	
626	6.250	273.34656	149.80109	292.94760	275.03644	147.91228	157.14075	
627	6.260	273.36078	149.81218	293.00394	274.97498	147.90613	157.16190	
628	6.270	273.31146	149.82439	293.01886	275.00595	147.89125	157.13463	
629	6.280	273.33160	149.78813	292.96506	274.98529	147.88727	157.13518	
630	6.290	273.32834	149.81024	292.98322	274.99722	147.86174	157.11653	
631	6.300	273.27991	149.78673	292.98346	274.99939	147.85718	157.11171	
632	6.310	273.29340	149.79861	292.94394	274.98444	147.86925	157.11240	
633	6.320	273.29550	149.80608	293.00137	274.98871	147.87004	157.11931	
634	6.330	273.31091	149.81636	292.97415	275.00089	147.86121	157.12045	
635	6.340	273.32977	149.80434	292.97644	275.00305	147.92766	157.12280	
636	6.350	273.33194	149.81790	292.96802	274.97385	147.90891	157.15649	
637	6.360	273.35501	149.79930	292.93146	275.01553	147.92377	157.12181	
638	6.370	273.37772	149.81656	292.97391	275.00772	147.89148	157.11140	
639	6.380	273.37604	149.81842	292.97345	274.99661	147.92525	157.13637	
640	6.390	273.36255	149.81453	292.95798	275.03107	147.89763	157.11263	
641	6.400	273.37030	149.80244	292.95331	275.03076	147.89790	157.11829	
642	6.410	273.41989	149.80981	292.96872	275.07364	147.91403	157.08955	
643	6.420	273.35522	149.80461	292.96686	275.00058	147.88365	157.11810	
644	6.430	273.38092	149.81601	292.97720	275.02850	147.86011	157.09811	
645	6.440	273.33060	149.78734	292.96936	275.00320	147.88297	157.11148	
646	6.450	273.32227	149.79834	292.95947	275.00400	147.87527	157.12242	
647	6.460	273.35214	149.81410	292.99765	274.99304	147.90878	157.14716	
648	6.470	273.30820	149.80833	292.98117	274.99506	147.86630	157.12135	
649	6.480	273.27234	149.78473	292.94980	274.99817	147.87505	157.12300	
650	6.490	273.32101	149.81987	293.01300	274.99054	147.88531	157.14737	
651	6.500	273.31079	149.81564	292.96063	274.98175	147.87251	157.11432	
652	6.510	273.33585	149.82536	292.95966	275.03238	147.89659	157.08298	
653	6.520	273.30463	149.82645	292.97180	274.97626	147.87907	157.11815	
654	6.530	273.29919	149.81190	292.94113	275.00946	147.86952	157.10274	
655	6.540	273.31488	149.80739	292.94232	275.03632	147.87886	157.09953	
656	6.550	273.32764	149.81291	292.98810	275.00742	147.87141	157.11221	
657	6.560	273.33679	149.81073	292.92123	275.03790	147.86053	157.08241	
658	6.570	273.37521	149.79114	292.96152	274.99240	147.86951	157.12325	
659	6.580	273.36914	149.79474	292.99750	274.99939	147.85718	157.11171	
660	6.590	273.35123	149.79121	292.94858	274.99524	147.85628	157.10477	
661	6.600	273.37222	149.78502	292.97226	275.01886	147.86317	157.12477	
662	6.610	273.36978	149.80418	292.99997	275.00525	147.87321	157.14635	
663	6.620	273.33514	149.80539	292.96494	275.00693	147.86203	157.10719	
664	6.630	273.35849	149.80594	292.99783	274.97687	147.90002	157.14851	
665	6.640	273.32919	149.79231	292.94623	275.02344	147.88289	157.15250	
666	6.650	273.32657	149.79176	292.95358	275.01935	147.92204	157.14133	
